<svg xmlns="http://www.w3.org/2000/svg" viewBox="0 0 158 48">
  <defs>
    <style>
      .a {
        fill: none;
      }

      .b {
        fill: #334155;
      }
    </style>
  </defs>
  <rect class="a" width="158" height="48"/>
  <g>
    <path class="b" d="M108.7,33a.2.2,0,0,1-.2.2h-2.8c-.2,0-.2-.1-.2-.2V26.9c0-.1.1-.2-.1-.3s-.1.2-.1.2c-.4,2.1-.8,4.2-1.1,6.2l-.2.2h-2.9c-.2,0-.2-.1-.3-.2s-.3-1.9-.4-2.8l-.6-3.4c0-.1,0-.2-.2-.2s-.1.1-.1.2V33c0,.1,0,.2-.2.2H96.6c-.2,0-.2-.1-.2-.2s.1-1.5.1-2.2.1-2.6.1-3.8.1-1.6.1-2.4.1-2.5.1-3.8a.2.2,0,0,1,.2-.2h4.2a.2.2,0,0,1,.2.2c.3,1.5.5,3,.8,4.5l.3,2h.2c.3-2.1.7-4.2,1-6.3.1-.4.1-.4.4-.4H108c.2,0,.3.1.3.2s0,2.7.1,4a19.3,19.3,0,0,0,.1,2.4c0,1.2.1,2.5.1,3.8A14.1,14.1,0,0,0,108.7,33Z"/>
    <path class="b" d="M44.4,32.9a.3.3,0,0,1-.3.3H41.4c-.2,0-.2-.1-.2-.3v-6a.4.4,0,0,0-.1-.3c-.1,0-.1.2-.1.2L39.8,33c0,.1,0,.2-.2.2H36.7a.2.2,0,0,1-.2-.2,27.4,27.4,0,0,0-.5-2.8l-.6-3.4c0-.1,0-.2-.1-.2s-.1.1-.1.2V33c0,.1,0,.2-.2.2H32.3c-.2,0-.2-.1-.2-.2a15.5,15.5,0,0,1,.1-2.2c0-1.3,0-2.6.1-3.8a19.3,19.3,0,0,1,.1-2.4c0-1.3.1-2.5.1-3.8s0-.2.2-.2h4.2a.2.2,0,0,1,.2.2c.2,1.5.5,3,.7,4.5s.3,1.3.4,2h.2l.4-2.9.6-3.6a.2.2,0,0,1,.2-.2h4.1c.2,0,.2.1.2.2a24.4,24.4,0,0,1,.1,2.7c.1,1.3.1,2.5.1,3.7a21.8,21.8,0,0,1,.1,2.5C44.3,30.8,44.3,31.9,44.4,32.9Z"/>
    <path class="b" d="M127.7,26.9v6a.3.3,0,0,1-.3.3h-2.9l-.3-.2-2.4-5.5h-.2v5.5a.3.3,0,0,1-.3.3h-2.6c-.2,0-.2-.1-.2-.2V20.8c0-.1,0-.2.2-.2h3c.2,0,.2.1.3.2.7,1.9,1.5,3.7,2.3,5.6a.1.1,0,0,0,.1.1c0,.1,0,.2.1.1s0,0,0-.1h0V20.9a.3.3,0,0,1,.3-.3h2.7a.2.2,0,0,1,.2.2Z"/>
    <path class="b" d="M157.3,32.9,155.8,28c-.1-.1,0-.2.1-.3a3.7,3.7,0,0,0,1.1-1.8,6.1,6.1,0,0,0-.1-3,2.8,2.8,0,0,0-2.1-2.1l-1.5-.2h-4.5a.3.3,0,0,0-.3.3V33a.2.2,0,0,0,.2.2h3a.3.3,0,0,0,.3-.3v-4c0-.1-.1-.2,0-.2a.4.4,0,0,1,.5.2c.3,1.4.7,2.7,1.1,4.1a.2.2,0,0,0,.2.2h3.4C157.4,33.2,157.4,33.2,157.3,32.9Zm-3.9-7.2c-.1.6-.3.8-.9.8s-.5.1-.5-.5V23.9c-.1-.2,0-.2.2-.2h.6a.7.7,0,0,1,.5.4,2.8,2.8,0,0,1,.1.9Z"/>
    <path class="b" d="M64.8,32.9,63.3,28c-.1-.1,0-.2.1-.3a4.2,4.2,0,0,0,1.1-1.8,6.2,6.2,0,0,0-.2-3.3,2.7,2.7,0,0,0-1.6-1.7,6.3,6.3,0,0,0-1.9-.3H56.3a.3.3,0,0,0-.3.3V33a.2.2,0,0,0,.2.2h3c.2,0,.3-.1.3-.2a24.3,24.3,0,0,1,0-2.7V28.8s-.1-.1,0-.1a.4.4,0,0,1,.5.2c.3,1.4.7,2.7,1.1,4.1s.1.2.3.2h3.3C64.9,33.2,64.9,33.2,64.8,32.9Zm-4-6.9c-.1.4-.4.5-.8.5s-.5.1-.5-.5v-.9a4.9,4.9,0,0,0-.1-1.2c0-.2.1-.2.2-.2h.7a1.2,1.2,0,0,1,.5.5A2.8,2.8,0,0,1,60.8,26Z"/>
    <path class="b" d="M147.2,25.7a18.5,18.5,0,0,0-.4-2.3,3.9,3.9,0,0,0-2.9-2.8,7.6,7.6,0,0,0-3,0,3.5,3.5,0,0,0-3.1,2.7,9.5,9.5,0,0,0-.5,3.3v1.7a9.5,9.5,0,0,0,.5,2.3,3.8,3.8,0,0,0,3,2.6,6.5,6.5,0,0,0,2.4.1,4.3,4.3,0,0,0,1.8-.6,3.6,3.6,0,0,0,1.7-2.3,11.2,11.2,0,0,0,.5-3.6Zm-3.6,3.7c-.2.7-.5,1-1.2,1h-.6c-.6-.1-.8-.6-.9-1.2a32.3,32.3,0,0,1,0-4.4.4.4,0,0,0,.1-.3,1.1,1.1,0,0,1,1.4-.8c.7,0,1,.4,1.2,1.1a19.3,19.3,0,0,1,.1,2.4A16.2,16.2,0,0,1,143.6,29.4Z"/>
    <path class="b" d="M72.7,26.9a.9.9,0,0,0,.1.5L74.9,33c0,.2,0,.2-.2.2H71.2c-.1,0-.1-.1-.2-.2s-.9-2.9-1.4-4.4,0-.2-.1-.1-.1.1-.1.2V33a.2.2,0,0,1-.2.2h-3c-.2,0-.2-.1-.2-.2V20.9c0-.2,0-.3.2-.3h3a.2.2,0,0,1,.2.2v4.9c0,.1-.1.2.1.2s.1-.1.1-.2l1.7-4.8c.1-.2.2-.3.4-.3h3.2c.2,0,.2.1.2.2Z"/>
    <path class="b" d="M54.4,30l-.9-5.2c-.3-1.3-.5-2.7-.8-4a.2.2,0,0,0-.2-.2H47.7c-.1,0-.2,0-.2.2s-.5,3-.8,4.5-.9,5.1-1.4,7.7c0,.1,0,.2.2.2h2.8a.2.2,0,0,0,.2-.2l.3-1.6.2-.2h2c.2,0,.2.1.3.2l.3,1.6c0,.1,0,.2.2.2h3c.2,0,.2-.1.2-.2Zm-3.7-1.2H49.5c-.1,0-.2,0-.2-.1s.4-2.2.5-3.2.1-.7.2-1a.1.1,0,0,1,.1-.1c.1-.1.1.1.1.1a18.7,18.7,0,0,0,.4,2.5,9.9,9.9,0,0,0,.2,1.7C50.8,28.8,50.8,28.8,50.7,28.8Z"/>
    <path class="b" d="M117.3,30.6c-.1.7-.1,1.4-.2,2.1s0,.5-.4.5h-6.1c-.3,0-.3,0-.3-.3v-12c0-.2.1-.3.2-.3h6.6c.2,0,.2.1.2.3s-.1,1.6-.2,2.4,0,.4-.4.4H114c-.2,0-.2.1-.2.2v1.5c0,.2,0,.2.2.2h2.5c.1,0,.2,0,.2.2v2.3l-.2.2H114c-.2,0-.2,0-.2.2v1.7c0,.1,0,.1.2.1h3.1C117.3,30.3,117.3,30.4,117.3,30.6Z"/>
    <path class="b" d="M82.8,30.6c0,.7-.1,1.4-.1,2.1s-.1.5-.5.5H76.1a.3.3,0,0,1-.3-.3v-12c0-.2.1-.3.2-.3h6.6c.2,0,.2.1.2.3s-.1,1.6-.1,2.4-.1.4-.5.4H79.5c-.2,0-.2.1-.2.3v1.4c0,.2,0,.2.2.2H82c.1,0,.2,0,.2.2v2.3c0,.1,0,.2-.2.2H79.5c-.2,0-.2,0-.2.2v1.6c0,.2,0,.2.2.2h3.1C82.8,30.3,82.8,30.4,82.8,30.6Z"/>
    <path class="b" d="M136.9,20.9a7.6,7.6,0,0,0-.1,1.5,4.5,4.5,0,0,0-.1,1.1c0,.2-.1.2-.2.2h-1.9a.3.3,0,0,0-.3.3v8.9c0,.2,0,.3-.2.3h-3c-.2,0-.2-.1-.2-.3v-9c0-.2-.1-.2-.2-.2h-2.1c-.1,0-.2,0-.2-.2s.1-1.8.2-2.7,0-.2.1-.2h8C136.9,20.6,136.9,20.6,136.9,20.9Z"/>
    <path class="b" d="M91.5,20.9c0,.5-.1,1-.1,1.5s-.1.8-.1,1.1,0,.2-.2.2H89.2c-.2,0-.2.1-.2.3v8.9a.3.3,0,0,1-.3.3H85.8c-.3,0-.3,0-.3-.3v-9c0-.2-.1-.2-.2-.2H83.2c-.1,0-.2,0-.2-.2a24.5,24.5,0,0,0,.2-2.7c0-.1,0-.2.1-.2h8C91.5,20.6,91.5,20.6,91.5,20.9Z"/>
    <path class="b" d="M9.9,34.7H8.8a10.8,10.8,0,0,1-3.1-.7A7.1,7.1,0,0,1,2.6,32,6.2,6.2,0,0,1,.8,28.4a8.4,8.4,0,0,1-.1-2.7,13.3,13.3,0,0,0,1.1,2.4,18.4,18.4,0,0,0,1.7,2.2,19.5,19.5,0,0,0,6.4,4.3Z"/>
    <path class="b" d="M25.8,31a6.5,6.5,0,0,1-3,2.5,11,11,0,0,1-3.5,1.1H17.6l.8-.4A19.1,19.1,0,0,0,24.3,30a11.6,11.6,0,0,0,2.5-4.1v-.2A7.5,7.5,0,0,1,25.8,31Z"/>
    <path class="b" d="M9.7,32.9a2.9,2.9,0,0,1-1-.3,12.6,12.6,0,0,1-4.3-2.9A9.2,9.2,0,0,1,2,25a9.1,9.1,0,0,1-.3-2.3,18.4,18.4,0,0,1,.5-4.1c0-.1.1-.1.1-.2v.7a18.8,18.8,0,0,0,.5,4.7,16,16,0,0,0,3.4,6.1,18.1,18.1,0,0,0,3.3,2.9Z"/>
    <path class="b" d="M25.8,23.2a9.6,9.6,0,0,1-3.2,7.1,12.7,12.7,0,0,1-4.2,2.5h-.5l1-.7a15.9,15.9,0,0,0,6-9c.2-1,.3-2,.4-3V18.4a13.6,13.6,0,0,1,.4,1.7A10.9,10.9,0,0,1,25.8,23.2Z"/>
    <path class="b" d="M17.8,19.9v9c0,.2-.1.3-.2.3h-.9c-.2,0-.2-.1-.2-.3v-8c0-.1,0-.2.1-.2Z"/>
    <path class="b" d="M5.7,27.5A9.4,9.4,0,0,1,5.1,26a19.8,19.8,0,0,1-.8-3.3A8.6,8.6,0,0,1,5,18.2,5.1,5.1,0,0,1,7.4,16h.3A14.6,14.6,0,0,0,5.7,27.5Z"/>
    <path class="b" d="M23,24.3c-.3,1-.6,2-1,3v.2a14.7,14.7,0,0,0-2.1-11.7l.8.4a5.3,5.3,0,0,1,2.6,3.9A11.9,11.9,0,0,1,23,24.3Z"/>
    <path class="b" d="M15.5,28.9c0,.2,0,.3-.2.3h-.9a.2.2,0,0,1-.2-.2V22.4c0-.1,0-.2.1-.2l1.2-.8v7.5Z"/>
    <path class="b" d="M13.4,22.8v6.1a.3.3,0,0,1-.3.3h-.9c-.1,0-.1-.1-.1-.2V23.7h0A5.7,5.7,0,0,1,13.4,22.8Z"/>
    <path class="b" d="M11.1,24.2V29c0,.1,0,.2-.2.2H10c-.2,0-.2-.1-.2-.2V25Z"/>
    <path class="b" d="M16.6,34.8l-1.3-.5-1.2-.5h-.3l-2.3.9h-.1l2.4-2.4a.2.2,0,0,1,.3,0l2.4,2.4Z"/>
    <path class="b" d="M9.7,32.9h0Z"/>
    <path class="b" d="M17.9,32.9h0Z"/>
    <polygon class="b" points="11.3 34.8 11.3 34.8 11.3 34.8 11.3 34.8"/>
    <polygon class="b" points="16.6 34.8 16.6 34.8 16.6 34.8 16.6 34.8"/>
  </g>
</svg>
