<svg xmlns="http://www.w3.org/2000/svg" viewBox="0 0 158 48">
  <defs>
    <style>
      .a {
        fill: none;
      }

      .b {
        fill: #334155;
      }
    </style>
  </defs>
  <rect class="a" width="158" height="48"/>
  <path class="b" d="M23.9,5.5l12.2,8.8a32.3,32.3,0,0,1-5.6,6.8C26.7,24.6,24,25.3,19,29a59,59,0,0,0-7.1,6.1,23.3,23.3,0,0,0,4.2,2.4,31.9,31.9,0,0,0,13.6,1.7,87.6,87.6,0,0,0-1.4-8.8c-1.6-7-3.1-9.7-3.9-15.6A47.1,47.1,0,0,1,23.9,5.5Z"/>
  <g>
    <path class="b" d="M48.5,30.9V16.2h3v5.9l5.6-5.9h3.7l-5.7,5.9,6.1,8.8H57.7L53,24l-1.5,1.6v5.3Z"/>
    <path class="b" d="M68.4,30.9a5,5,0,0,1-.3-1.2h0a3.2,3.2,0,0,1-1.2,1.1,4.7,4.7,0,0,1-1.9.3,4,4,0,0,1-2.7-.8,3,3,0,0,1-1-2.4,2.6,2.6,0,0,1,1.1-2.3,7.5,7.5,0,0,1,3.1-1.1l2-.4a.8.8,0,0,0,.6-.8,1.1,1.1,0,0,0-.5-.9,2.3,2.3,0,0,0-1.3-.3c-1.3,0-2,.5-2,1.5H61.8A3,3,0,0,1,63,21.1a4.8,4.8,0,0,1,3.3-1q4.5,0,4.5,3.9v5.3a2.4,2.4,0,0,0,.3,1.5H68.4Zm-2.8-1.7a2.9,2.9,0,0,0,1.9-.6,2,2,0,0,0,.6-1.4V25.6a5.9,5.9,0,0,1-1.9.6l-1.7.6a1.3,1.3,0,0,0-.5,1.1C64,28.7,64.5,29.2,65.6,29.2Z"/>
    <path class="b" d="M75.2,20.3V22h.1a3.6,3.6,0,0,1,1.1-1.3,2.5,2.5,0,0,1,1.5-.5h.6v2.5h0a2.9,2.9,0,0,0-2.3.6,3,3,0,0,0-.9,2.4v5.1H72.5V20.3Z"/>
    <path class="b" d="M82.8,30.9,79.1,20.3h2.8l1.7,5.5.5,1.7h0l.5-1.7,1.7-5.5h2.8L85.4,30.9Z"/>
    <path class="b" d="M98.7,29.6a5.1,5.1,0,0,1-4,1.6,5,5,0,0,1-3.9-1.6,5.2,5.2,0,0,1-1.6-4,5,5,0,0,1,1.6-3.9,5,5,0,0,1,3.9-1.6,5.1,5.1,0,0,1,4,1.6,5.3,5.3,0,0,1,1.6,3.9A5.6,5.6,0,0,1,98.7,29.6Zm-4-.5a2.2,2.2,0,0,0,2-1,3.7,3.7,0,0,0,.7-2.5,4.1,4.1,0,0,0-.7-2.5,2.4,2.4,0,0,0-2-.9,2.2,2.2,0,0,0-1.9.9,3.9,3.9,0,0,0-.7,2.5,3.7,3.7,0,0,0,.7,2.5A2.1,2.1,0,0,0,94.7,29.1Z"/>
    <path class="b" d="M101.6,30.9V16.2h2.8V30.9Z"/>
    <path class="b" d="M109,20.3v1.5h0a3.5,3.5,0,0,1,3.2-1.7,3.3,3.3,0,0,1,2.6,1.1,3.7,3.7,0,0,1,1,2.8v6.9H113V24.4a2.2,2.2,0,0,0-.5-1.4,1.7,1.7,0,0,0-1.3-.5,2.1,2.1,0,0,0-1.6.7,2.4,2.4,0,0,0-.6,1.7v6h-2.8V20.3Z"/>
    <path class="b" d="M124.2,30.9a2.4,2.4,0,0,1-.4-1.2h0a3.8,3.8,0,0,1-1.1,1.1,5.6,5.6,0,0,1-2,.3,4,4,0,0,1-2.7-.8,3.3,3.3,0,0,1-1-2.4,2.6,2.6,0,0,1,1.1-2.3,8,8,0,0,1,3.2-1.1l2-.4a.8.8,0,0,0,.5-.8,1,1,0,0,0-.4-.9,2.6,2.6,0,0,0-1.4-.3c-1.2,0-1.9.5-2,1.5h-2.5a3.7,3.7,0,0,1,1.2-2.5,4.9,4.9,0,0,1,3.4-1c2.9,0,4.4,1.3,4.4,3.9v5.3c0,.8.1,1.3.4,1.5h-2.7Zm-2.8-1.7a2.6,2.6,0,0,0,1.8-.6,2.1,2.1,0,0,0,.7-1.4V25.6a6.8,6.8,0,0,1-2,.6l-1.7.6a1.3,1.3,0,0,0-.5,1.1C119.7,28.7,120.3,29.2,121.4,29.2Z"/>
    <path class="b" d="M128.2,30.9v-3h3v3Z"/>
    <path class="b" d="M135.7,16.2v5.5h0a3.7,3.7,0,0,1,1.3-1.2,3.4,3.4,0,0,1,1.8-.4,3.1,3.1,0,0,1,2.6,1.1,3.7,3.7,0,0,1,1,2.8v6.9h-2.8V24.4a1.7,1.7,0,0,0-1.8-1.9,1.8,1.8,0,0,0-1.5.7,2.4,2.4,0,0,0-.6,1.7v6h-2.8V16.2Z"/>
    <path class="b" d="M153.5,30.9h-2.7V29.7h0a4.2,4.2,0,0,1-1.3,1.1,3.4,3.4,0,0,1-1.8.4,4.1,4.1,0,0,1-2.7-1,4.3,4.3,0,0,1-.9-2.8V20.3h2.7v6.6c0,1.3.6,1.9,1.8,1.9a1.9,1.9,0,0,0,1.5-.6,2.6,2.6,0,0,0,.6-1.8V20.3h2.8Z"/>
  </g>
</svg>
