<svg xmlns="http://www.w3.org/2000/svg" viewBox="0 0 158 48">
  <defs>
    <style>
      .a {
        isolation: isolate;
      }

      .b {
        fill: #334155;
      }

      .c {
        fill: none;
      }
    </style>
  </defs>
  <g class="a">
    <path class="b" d="M58.1,16.3v5.5h0a3.6,3.6,0,0,1,1.3-1.2,3.4,3.4,0,0,1,1.8-.4,3.3,3.3,0,0,1,2.6,1.1,4.1,4.1,0,0,1,1,2.8v6.8H62V24.5a2.2,2.2,0,0,0-.5-1.4,1.4,1.4,0,0,0-1.3-.5,2,2,0,0,0-1.5.6,2.8,2.8,0,0,0-.6,1.8v5.9H55.3V16.3Z"/>
    <path class="b" d="M66.5,18.8V16.3h2.7v2.5Zm0,12.1V20.5h2.7V30.9Z"/>
    <path class="b" d="M75.6,34.5a5.9,5.9,0,0,1-3.4-.9,3.8,3.8,0,0,1-1.5-2.4h2.8a2,2,0,0,0,2.1,1.2,2,2,0,0,0,2.3-2.2V29h0a3.5,3.5,0,0,1-2.8,1.3,4.5,4.5,0,0,1-3.2-1.4,4.9,4.9,0,0,1-1.4-3.6,4.9,4.9,0,0,1,1.3-3.7A3.9,3.9,0,0,1,75,20.2a3.1,3.1,0,0,1,2.9,1.4H78V20.5h2.6v9.6a4.2,4.2,0,0,1-1.2,3.2A5.2,5.2,0,0,1,75.6,34.5Zm0-6.5a2.1,2.1,0,0,0,1.8-.7,3.1,3.1,0,0,0,.7-2.1,3.2,3.2,0,0,0-.7-2,2.2,2.2,0,0,0-1.8-.8,1.9,1.9,0,0,0-1.7.8,2.7,2.7,0,0,0-.7,2,2.8,2.8,0,0,0,.7,2.1A2.1,2.1,0,0,0,75.6,28Z"/>
    <path class="b" d="M85.2,16.3v5.5h.1a2.9,2.9,0,0,1,1.3-1.2,2.9,2.9,0,0,1,1.7-.4,3.1,3.1,0,0,1,2.6,1.1,3.7,3.7,0,0,1,1,2.8v6.8H89.1V24.5a2.1,2.1,0,0,0-.4-1.4,1.7,1.7,0,0,0-1.4-.5,2,2,0,0,0-1.5.6,2.8,2.8,0,0,0-.6,1.8v5.9H82.4V16.3Z"/>
    <path class="b" d="M99.5,31.2A7.6,7.6,0,0,1,94.9,30a4.5,4.5,0,0,1-1.7-3.6h2.9a2.6,2.6,0,0,0,.9,1.9,3.9,3.9,0,0,0,2.4.5,4,4,0,0,0,2-.4,1.6,1.6,0,0,0,.8-1.4,1.5,1.5,0,0,0-.1-.7c-.1-.1-.2-.3-.4-.4l-.5-.4-.7-.3-.9-.2-1-.2L97,24.4l-1.3-.5-1.1-.8a3.9,3.9,0,0,1-1-2.7,3.8,3.8,0,0,1,1.5-3.2,7.3,7.3,0,0,1,4.1-1.1,5.9,5.9,0,0,1,3.9,1.2,4.3,4.3,0,0,1,1.7,3.3H102a2.4,2.4,0,0,0-.9-1.6,3.1,3.1,0,0,0-1.9-.6,3.9,3.9,0,0,0-2,.5,1.5,1.5,0,0,0-.7,1.2,1.6,1.6,0,0,0,.7,1.3,11.5,11.5,0,0,0,2.5.7l1.7.4,1.5.6a3.6,3.6,0,0,1,1.2.8,3,3,0,0,1,.7,1.1,4.1,4.1,0,0,1,.3,1.6,4.1,4.1,0,0,1-1.5,3.4A6.6,6.6,0,0,1,99.5,31.2Z"/>
    <path class="b" d="M106.7,18.8V16.3h2.8v2.5Zm0,12.1V20.5h2.8V30.9Z"/>
    <path class="b" d="M115.8,34.5a5.4,5.4,0,0,1-3.3-.9,3.2,3.2,0,0,1-1.5-2.4h2.7a2,2,0,0,0,2.1,1.2c1.6,0,2.3-.8,2.3-2.2V29h0a3.5,3.5,0,0,1-2.8,1.3,4.5,4.5,0,0,1-3.2-1.4,4.9,4.9,0,0,1-1.4-3.6,5.4,5.4,0,0,1,1.3-3.7,3.9,3.9,0,0,1,3.3-1.4,3,3,0,0,1,2.8,1.4h.1V20.5h2.7v9.6a4.3,4.3,0,0,1-1.3,3.2A5.2,5.2,0,0,1,115.8,34.5Zm0-6.5a2.4,2.4,0,0,0,1.9-.7,3.7,3.7,0,0,0,.6-2.1,2.7,2.7,0,0,0-.7-2,2.2,2.2,0,0,0-1.8-.8,1.9,1.9,0,0,0-1.7.8,3.2,3.2,0,0,0-.7,2,3.3,3.3,0,0,0,.7,2.1A2.1,2.1,0,0,0,115.8,28Z"/>
    <path class="b" d="M125.4,20.5v1.4h0a3.4,3.4,0,0,1,3.1-1.7,3,3,0,0,1,2.6,1.1,3.7,3.7,0,0,1,1,2.8v6.8h-2.8V24.5a2.1,2.1,0,0,0-.4-1.4,1.7,1.7,0,0,0-1.4-.5,2,2,0,0,0-1.5.6,2.8,2.8,0,0,0-.6,1.8v5.9h-2.8V20.5Z"/>
    <path class="b" d="M140.4,30.9a5,5,0,0,1-.3-1.2H140a2.9,2.9,0,0,1-1.1,1.1,5,5,0,0,1-1.9.3,4,4,0,0,1-2.7-.8,2.7,2.7,0,0,1-1-2.4,2.7,2.7,0,0,1,1.1-2.3,7.5,7.5,0,0,1,3.1-1,9.5,9.5,0,0,0,2-.4.7.7,0,0,0,.5-.8,1,1,0,0,0-.4-.9,2.3,2.3,0,0,0-1.3-.3c-1.3,0-2,.5-2,1.4h-2.5a2.9,2.9,0,0,1,1.2-2.4,4.8,4.8,0,0,1,3.3-1c2.9,0,4.4,1.3,4.4,3.8v5.4c0,.7.1,1.2.4,1.4h-2.7Zm-2.8-1.7a2.4,2.4,0,0,0,1.8-.6,1.6,1.6,0,0,0,.7-1.4V25.6l-1.9.7a3,3,0,0,0-1.7.6,1.1,1.1,0,0,0-.5,1C136,28.8,136.5,29.2,137.6,29.2Z"/>
    <path class="b" d="M144.5,30.9V16.3h2.8V30.9Z"/>
    <path class="b" d="M153.3,31.2a5.4,5.4,0,0,1-3.5-1,3.6,3.6,0,0,1-1.4-2.7H151a2,2,0,0,0,2.3,1.8,2.6,2.6,0,0,0,1.4-.4,1.1,1.1,0,0,0,.5-.9.4.4,0,0,0-.1-.3l-.2-.3-.3-.2-.5-.2h-1.6l-1.4-.4-1.2-.5a2,2,0,0,1-.9-.9,2.9,2.9,0,0,1-.3-1.4,2.9,2.9,0,0,1,1.2-2.5,5.9,5.9,0,0,1,3.1-.8,5.3,5.3,0,0,1,3.2.9,3.8,3.8,0,0,1,1.3,2.5H155c-.1-1-.8-1.5-2-1.5a2.9,2.9,0,0,0-1.4.3,1,1,0,0,0-.4.9v.3l.3.3h.3l.5.2H154l1.1.3,1,.4.8.5a2.8,2.8,0,0,1,.6.9,5,5,0,0,1,.2,1.2,2.9,2.9,0,0,1-1.2,2.5A5.3,5.3,0,0,1,153.3,31.2Z"/>
  </g>
  <polyline class="b" points="1.8 35.6 8.1 29.4 13.5 34.8 26.3 22.6 46.2 12.3 26.5 31.7 26.3 22.6"/>
  <rect class="c" width="158" height="48"/>
</svg>
